<?xml version="1.0" encoding="UTF-8"?>
<svg version="1.1" xmlns="http://www.w3.org/2000/svg" width="1265" height="637">
<path d="M0 0 C417.45 0 834.9 0 1265 0 C1265 210.21 1265 420.42 1265 637 C847.55 637 430.1 637 0 637 C0 426.79 0 216.58 0 0 Z " fill="#FFFEFF" transform="translate(0,0)"/>
<path d="M0 0 C1.61551758 -0.0309375 1.61551758 -0.0309375 3.26367188 -0.0625 C10.26683027 -0.09643414 16.1287001 0.79457954 22.6875 3.25 C23.59242188 3.58 24.49734375 3.91 25.4296875 4.25 C41.26720419 11.67564885 49.58084445 24.60327587 55.41723633 40.42382812 C58.06608467 47.88400484 58.85610314 54.73688066 58.92578125 62.6171875 C58.93543915 63.52097137 58.94509705 64.42475525 58.95504761 65.35592651 C58.97986736 68.27899276 58.99244391 71.20183972 59 74.125 C59.00295074 75.11842407 59.00590149 76.11184814 59.00894165 77.13537598 C59.01861148 91.40804292 58.36631849 104.93414306 55.20458984 118.90283203 C54.70126781 121.18750531 54.28213335 123.47047792 53.89453125 125.77734375 C52.48005067 134.18221436 50.3476245 142.15878797 47.6875 150.25 C47.0380245 152.37388965 46.39222993 154.49890818 45.75 156.625 C44.25343848 161.4952264 42.67766882 166.33366953 41.05859375 171.1640625 C40.71483704 172.19237183 40.71483704 172.19237183 40.36413574 173.24145508 C39.80586466 174.91117329 39.24676911 176.58061581 38.6875 178.25 C43.75111174 178.66236645 48.81500168 179.07108771 53.87915039 179.47680664 C55.59244222 179.6145403 57.30566197 179.7531743 59.01879883 179.89282227 C61.51884773 180.09644283 64.01910451 180.29716817 66.51953125 180.49609375 C67.77021896 180.59596085 67.77021896 180.59596085 69.0461731 180.69784546 C73.34363802 181.03001741 77.6367177 181.30879003 81.94287109 181.50048828 C82.79386887 181.53884293 83.64486664 181.57719757 84.52165222 181.61671448 C86.12852461 181.68508008 87.73573352 181.74611612 89.34321594 181.79820251 C92.93636684 181.94858262 96.09437846 182.27551758 99.53125 183.36914062 C102.74233779 184.62262819 102.74233779 184.62262819 105.86328125 182.87109375 C106.89839844 182.15050781 107.93351562 181.42992187 109 180.6875 C110.14010889 179.9295496 111.2820533 179.17435322 112.42578125 178.421875 C113.50214844 177.70515625 114.57851563 176.9884375 115.6875 176.25 C122.23735191 172.3613323 128.53639173 170.34197007 136 168.828125 C138.64204976 168.3765206 138.64204976 168.3765206 140.6875 167.25 C144.78554469 166.95304024 148.8924624 166.97193995 153 166.9375 C154.14146484 166.90849609 155.28292969 166.87949219 156.45898438 166.84960938 C164.845 166.7858933 164.845 166.7858933 168.8359375 168.984375 C170.66485472 171.22229058 171.90286627 173.14416241 173 175.8125 C173.32613281 176.57691406 173.65226562 177.34132812 173.98828125 178.12890625 C174.6875 180.25 174.6875 180.25 174.6875 183.25 C175.24219971 183.08991455 175.79689941 182.9298291 176.3684082 182.76489258 C180.80337916 181.78022538 185.34962193 181.98027295 189.875 181.9375 C190.87853516 181.90849609 191.88207031 181.87949219 192.91601562 181.84960938 C199.58454347 181.79320673 205.02920593 182.52212816 210.6875 186.25 C214.47893011 190.3236167 214.07679837 194.79092734 213.9375 200.0625 C213.93234375 200.83142578 213.9271875 201.60035156 213.921875 202.39257812 C213.73541756 216.20208244 213.73541756 216.20208244 211.6875 218.25 C211.35456984 219.86003825 211.0756612 221.48131891 210.8203125 223.10546875 C210.65829346 224.11407959 210.49627441 225.12269043 210.3293457 226.16186523 C210.15878662 227.24282471 209.98822754 228.32378418 209.8125 229.4375 C208.51291018 237.49329454 207.06804673 245.45019596 205.2734375 253.41015625 C204.61522401 256.60029762 204.22029763 259.74462829 203.99609375 262.9921875 C203.6875 265.25 203.6875 265.25 202.76171875 268.765625 C201.37678279 274.1518338 200.73695588 279.61235549 200.0625 285.125 C199.9284375 286.14980469 199.794375 287.17460937 199.65625 288.23046875 C197.52376222 304.04257466 197.52376222 304.04257466 203.3125 318.375 C208.39671888 320.24813327 213.78413368 318.88076672 218.625 316.75 C223.17830234 314.29048528 226.77545235 310.73706611 230.48828125 307.17578125 C232.6875 305.25 232.6875 305.25 235.6875 304.25 C236.37236725 302.92592331 237.03620203 301.59090759 237.6875 300.25 C238.36425781 299.66855225 239.04101562 299.08710449 239.73828125 298.48803711 C242.28846308 295.55999141 242.10523002 294.08636257 241.9375 290.25390625 C241.90366211 289.06539063 241.86982422 287.876875 241.83496094 286.65234375 C241.78629883 285.38519531 241.73763672 284.11804688 241.6875 282.8125 C241.43806699 270.08194429 242.53909461 258.565325 245.6875 246.25 C245.97625 245.05761719 246.265 243.86523438 246.5625 242.63671875 C253.31636054 217.94291615 270.00947053 193.87925615 291.6875 180.25 C310.86553217 169.33357879 331.00498991 165.0188633 353 169.3125 C364.23130518 172.5003606 373.27305367 181.03614869 379.2890625 190.8671875 C383.56557946 199.0951061 385.01596587 206.48737713 384.9375 215.6875 C384.94523438 216.59048828 384.95296875 217.49347656 384.9609375 218.42382812 C384.92374024 231.26618055 380.91935496 244.04587625 371.8515625 253.40234375 C366.32728205 258.11892254 360.43374049 260.02722851 353.18359375 259.69921875 C347.53278146 258.6822494 343.15951456 256.12347308 339.625 251.625 C337.78938875 245.01679949 337.99272441 238.80276497 340.1875 232.3125 C342.07390847 226.63513604 342.57882428 221.18342338 341.6875 215.25 C340.05981504 211.78848629 340.05981504 211.78848629 336.6875 210.25 C330.28283796 208.93336216 325.23030236 210.26872346 319.77734375 213.71875 C306.4320385 223.49699235 300.37351476 239.44532844 297.375 255.25 C294.88452853 274.57510073 295.09656946 294.96873793 307.375 311.0625 C314.94165068 319.26776825 325.95164627 321.1450001 336.58666992 321.63525391 C357.89507966 322.14986847 375.20958748 311.82101555 391.6875 299.25 C394.03779276 296.89970724 393.97666722 296.29559165 394.1796875 293.09375 C394.24236816 292.24554688 394.30504883 291.39734375 394.36962891 290.5234375 C394.43327637 289.60820312 394.49692383 288.69296875 394.5625 287.75 C397.69457779 250.89316476 414.09930355 216.28652642 442.26660156 191.88183594 C450.15289414 185.27834142 458.64185988 180.09909315 467.6875 175.25 C468.41453125 174.82847656 469.1415625 174.40695313 469.890625 173.97265625 C474.96113873 171.14978621 480.27180949 170.03817703 485.9296875 168.86328125 C488.6301383 168.37967674 488.6301383 168.37967674 490.6875 167.25 C494.78554469 166.95304024 498.8924624 166.97193995 503 166.9375 C504.14146484 166.90849609 505.28292969 166.87949219 506.45898438 166.84960938 C514.82781095 166.7860239 514.82781095 166.7860239 518.8359375 168.94921875 C520.79110796 171.37874491 521.93814329 173.44724692 523 176.375 C523.32613281 177.24382812 523.65226563 178.11265625 523.98828125 179.0078125 C524.6875 181.25 524.6875 181.25 524.6875 183.25 C525.40897217 183.08991455 526.13044434 182.9298291 526.8737793 182.76489258 C531.40302835 181.93606948 535.90603833 181.98322623 540.5 181.9375 C541.45970703 181.90849609 542.41941406 181.87949219 543.40820312 181.84960938 C549.57544058 181.79488304 554.69245089 182.38419352 559.6875 186.25 C562.48670177 189.05231718 563.59468518 190.63638093 564.19238281 194.58789062 C564.05919336 204.41375401 562.85791578 213.6953151 560.92446899 223.32458496 C560.42402075 225.81713524 559.9415265 228.31260485 559.46362305 230.80957031 C558.98288584 233.32095851 558.50137488 235.83214969 558.01445007 238.34234619 C556.21110496 247.6410814 554.6479277 256.97475086 553.15673828 266.328125 C552.63533292 269.57483643 552.09638712 272.81846491 551.55859375 276.0625 C551.1840979 278.37487091 550.81038305 280.68736847 550.4375 283 C550.2619458 284.04768555 550.0863916 285.09537109 549.90551758 286.17480469 C548.31676082 296.2254355 546.9572825 306.8512635 551.6875 316.25 C553.15038557 318.55596047 553.15038557 318.55596047 555.6875 319.25 C565.27360369 319.64784225 571.73057361 315.39047639 578.5625 309.125 C580.62595338 307.18863392 582.66120928 305.22515818 584.6875 303.25 C585.41332275 302.54689697 585.41332275 302.54689697 586.15380859 301.82958984 C589.04848646 299.01650826 591.9237456 296.19206114 594.6875 293.25 C595.20376953 292.71431396 595.72003906 292.17862793 596.25195312 291.62670898 C598.28875671 288.25455203 598.41855745 284.873562 598.71484375 281.03125 C598.82517944 279.82207413 598.82517944 279.82207413 598.93774414 278.58847046 C599.09479008 276.86718493 599.24673003 275.14542723 599.39401245 273.42327881 C600.5865016 259.6222926 601.89959232 245.97348916 605.15332031 232.48242188 C605.73491969 230.05182557 606.27100141 227.61341999 606.8046875 225.171875 C616.16010976 183.17737367 616.16010976 183.17737367 628.5859375 172.50390625 C635.73080989 168.24088759 642.16162012 167.7548781 650.3125 167.8125 C651.323125 167.79251953 652.33375 167.77253906 653.375 167.75195312 C659.44087678 167.75593336 663.09817444 168.15619963 667.6875 172.25 C671.53261603 179.94023207 667.84927859 190.82015559 665.6875 198.5625 C649.82303829 250.73750606 649.82303829 250.73750606 652.6875 303.25 C655.79703379 304.8047669 658.25016761 304.53644437 661.6875 304.25 C682.59173052 294.46504103 693.36612075 256.62100821 700.59173584 236.8109436 C705.05279302 224.45019159 709.16475406 212.07612096 712.5625 199.375 C718.38748837 177.69586802 718.38748837 177.69586802 727.46484375 171.3359375 C733.77733135 168.25180472 739.86930401 167.88521633 746.75 167.875 C747.62205078 167.85050781 748.49410156 167.82601562 749.39257812 167.80078125 C755.13378376 167.77470462 758.29958685 168.47288436 762.6875 172.25 C768.3243119 183.52362379 761.44938114 203.14169449 759.34570312 214.58886719 C758.37941319 219.96367575 757.52870534 225.35444276 756.6875 230.75 C755.27603464 239.72473494 753.75511395 248.67628945 752.1875 257.625 C750.30655024 268.37625632 748.63069993 279.1439692 747.07519531 289.94677734 C745.98099375 297.47871947 744.70180005 304.94476145 743.203125 312.40625 C742.59829517 315.26029178 742.59829517 315.26029178 742.6875 318.25 C743.69425781 317.46238281 744.70101562 316.67476563 745.73828125 315.86328125 C755.0047395 308.66719095 764.46540735 301.877449 774.1875 295.3125 C778.14145869 292.63874379 782.01551718 289.8700038 785.875 287.0625 C805.86228826 272.65946437 805.86228826 272.65946437 813.5625 270.8125 C819.92623392 269.11226575 823.67621622 263.11988633 827.6875 258.25 C837.52959085 246.73265964 848.36324215 236.69303954 860.125 227.1875 C860.7336792 226.69266113 861.3423584 226.19782227 861.96948242 225.68798828 C865.35557333 222.97569935 868.80987852 220.45793039 872.42993164 218.06469727 C873.23024307 217.53457535 874.0305545 217.00445343 874.8551178 216.45826721 C875.45980392 216.05953903 876.06449005 215.66081085 876.6875 215.25 C875.89902679 215.25888245 875.11055359 215.26776489 874.29818726 215.2769165 C866.85372187 215.35719148 859.40946747 215.41802949 851.96468163 215.45724869 C848.13756158 215.47808989 844.31080031 215.506343 840.48388672 215.55175781 C836.7880261 215.59534101 833.09250974 215.61916318 829.3964119 215.62950897 C827.98902597 215.63687813 826.58165807 215.65126863 825.1744194 215.67292023 C823.19768529 215.70211392 821.22060196 215.70363525 819.24365234 215.70410156 C818.12002289 215.71298401 816.99639343 215.72186646 815.8387146 215.73101807 C810.64378618 214.93803671 807.57824594 212.41291832 804.4375 208.3125 C799.80158224 200.19964393 799.21925829 191.32931432 801.41015625 182.2578125 C803.50260118 176.68360699 806.32378825 171.40447399 811.46679688 168.11035156 C814.31770031 167.00584588 816.66196164 166.99083951 819.71875 166.984375 C821.50671997 166.97833252 821.50671997 166.97833252 823.33081055 166.97216797 C824.60351807 166.98135254 825.87622559 166.99053711 827.1875 167 C829.16327026 167.00797607 829.16327026 167.00797607 831.17895508 167.01611328 C839.07752385 167.09234405 846.82454932 167.47527773 854.66503906 168.39306641 C867.95885889 169.92161476 881.3477097 170.53364844 894.70996094 171.15637207 C896.54387608 171.24320003 898.37742905 171.33758779 900.2109375 171.43261719 C912.62098663 172.02231989 923.41424866 171.2316316 935.29785156 167.38476562 C942.02187462 165.20972628 948.30081667 163.68691539 954.9375 166.75 C959.64638968 171.0308088 963.51702967 176.5699828 963.92578125 182.99609375 C964.20191143 194.46659087 963.66464421 203.75735607 956.125 213 C950.4463564 218.86550939 943.68121845 222.65180123 936.54296875 226.484375 C910.45973961 240.52765842 887.05588733 260.89313103 867.6875 283.25 C866.965625 284.02214844 866.24375 284.79429687 865.5 285.58984375 C855.16645217 296.65893926 847.2563972 309.19639469 839.6875 322.25 C843.79185228 322.10912664 847.89593079 321.96137528 852 321.8125 C853.14791016 321.77318359 854.29582031 321.73386719 855.47851562 321.69335938 C856.61611328 321.65146484 857.75371094 321.60957031 858.92578125 321.56640625 C859.95743408 321.52974854 860.98908691 321.49309082 862.05200195 321.45532227 C864.97377817 321.29030892 867.85823954 321.04835435 870.76928711 320.76367188 C877.21984315 320.16089328 883.66700957 319.92533321 890.140625 319.71484375 C891.39905212 319.67186661 892.65747925 319.62888947 893.95404053 319.58460999 C896.60294915 319.49490914 899.25186274 319.40642374 901.90087891 319.32006836 C904.58489166 319.2324659 907.26879765 319.1423322 909.95263672 319.04956055 C918.53021129 318.75340119 927.10803158 318.48493042 935.6875 318.25 C936.56830231 318.22359436 937.44910461 318.19718872 938.3565979 318.16998291 C940.47868287 318.1103953 942.60001451 318.06783672 944.72265625 318.03515625 C945.78621338 318.01461182 946.84977051 317.99406738 947.94555664 317.97290039 C952.85834423 318.46938458 956.35751422 320.6955208 959.6875 324.25 C964.72677412 331.74539092 965.5367794 339.37550741 964.6875 348.25 C962.56906374 356.28423544 960.02014748 362.61989621 953.07324219 367.34887695 C949.46873356 368.7103425 945.87802237 368.51379294 942.078125 368.48046875 C941.21607452 368.48037308 940.35402405 368.4802774 939.46585083 368.48017883 C936.6229308 368.47642903 933.78034961 368.45738545 930.9375 368.4375 C928.94742963 368.4306189 926.95735793 368.42411332 924.96728516 368.41796875 C912.81850345 368.36486292 900.67750496 368.15229381 888.53344727 367.81781006 C886.06076755 367.74995246 883.58802645 367.68520478 881.11523438 367.62158203 C880.30556213 367.60073547 879.49588989 367.57988892 878.66168213 367.55841064 C877.04690216 367.51708698 875.43211541 367.47602779 873.81732178 367.4352417 C869.86842558 367.33492379 865.9199739 367.22781037 861.97167969 367.10595703 C846.20533275 366.63543691 831.96317978 366.4699955 816.9140625 371.90234375 C809.59356317 374.46267414 800.92837212 374.727503 793.5625 372.125 C787.69963693 368.30139365 784.99666769 364.03977902 783.1796875 357.39453125 C782.13576403 350.72502017 782.51352269 343.97697238 782.6875 337.25 C781.73190186 337.85585938 780.77630371 338.46171875 779.79174805 339.0859375 C778.44885212 339.93300101 777.10546827 340.77929126 775.76171875 341.625 C774.68370247 342.30393311 774.68370247 342.30393311 773.58390808 342.99658203 C769.18419425 345.74780657 764.73933316 348.37950674 760.21492004 350.91973877 C742.32437351 360.17939322 742.32437351 360.17939322 730.65625 375.546875 C729.41330455 380.95518946 729.09336624 386.36144585 728.90869141 391.89599609 C728.52713409 397.68168525 727.07834003 403.19917448 725.6875 408.8125 C725.30223145 410.453396 725.30223145 410.453396 724.90917969 412.12744141 C723.01926578 420.14921149 720.82691286 428.03608712 718.39550781 435.90771484 C717.55536532 438.68713798 716.75701472 441.47717076 715.9609375 444.26953125 C715.50545532 445.86063721 715.50545532 445.86063721 715.04077148 447.48388672 C714.44839571 449.5561754 713.85915272 451.62936328 713.27368164 453.70361328 C711.44116989 460.06761079 709.23332786 466.14036929 706.6875 472.25 C705.96734943 474.05543156 705.24864853 475.86144189 704.53125 477.66796875 C696.93991831 496.47978579 688.89333293 515.62619766 675.6875 531.25 C675.18089844 531.90484375 674.67429687 532.5596875 674.15234375 533.234375 C668.18444304 540.74827784 660.47179434 546.06278351 652.125 550.625 C651.22406616 551.12567993 651.22406616 551.12567993 650.30493164 551.63647461 C638.15845151 558.01218809 622.39037994 557.93467586 609.1328125 555.6328125 C597.70979001 551.89135876 587.05405927 542.93558026 581.4375 532.3125 C573.48180383 514.35390647 575.08873756 494.5043838 581.6875 476.25 C588.3274212 459.38525433 598.285271 445.19242407 609.6875 431.25 C610.16203613 430.66959961 610.63657227 430.08919922 611.12548828 429.49121094 C620.42297905 418.20567656 630.46526188 407.47170149 641.640625 398.015625 C643.80794287 396.14610653 645.90605245 394.20936712 648.00244141 392.26098633 C652.80684911 387.80018024 657.68191689 383.53212584 662.84765625 379.48828125 C665.12449698 377.6937424 667.37737986 375.87834697 669.62109375 374.04296875 C670.32202148 373.46981934 671.02294922 372.89666992 671.74511719 372.30615234 C673.12839057 371.17372015 674.51061399 370.04000375 675.89160156 368.90478516 C676.53967773 368.37546387 677.18775391 367.84614258 677.85546875 367.30078125 C678.49057373 366.77363525 679.12567871 366.24648926 679.7800293 365.70336914 C681.6875 364.25 681.6875 364.25 683.65161133 363.18530273 C686.86245663 361.40075837 688.37600214 360.17133289 689.57739258 356.61791992 C690.21121867 353.31121481 690.63979906 350.03491713 691 346.6875 C691.28710687 344.43611448 691.57486433 342.18481182 691.86328125 339.93359375 C692.06195801 338.26707764 692.06195801 338.26707764 692.26464844 336.56689453 C692.80401732 332.33602523 693.50826395 328.14262651 694.23022461 323.93969727 C694.82063287 320.46691147 695.32410139 316.98856152 695.8125 313.5 C695.98007812 312.30890625 696.14765625 311.1178125 696.3203125 309.890625 C696.44148437 309.01921875 696.56265625 308.1478125 696.6875 307.25 C696.51210693 307.78778076 696.33671387 308.32556152 696.15600586 308.87963867 C688.88315466 330.96205989 679.42746328 352.13409117 657.6875 363.25 C652.27117914 365.95816043 647.94782983 366.83096757 642 366.8125 C641.21270508 366.81080811 640.42541016 366.80911621 639.61425781 366.80737305 C632.26576608 366.58307752 626.78794647 364.36310491 620.6875 360.25 C619.0478125 359.1671875 619.0478125 359.1671875 617.375 358.0625 C614.12595459 354.66233619 611.80761333 350.99535374 609.3984375 346.96875 C607.66853727 344.21986745 605.75980092 341.74762033 603.6875 339.25 C602.75550781 340.095625 601.82351563 340.94125 600.86328125 341.8125 C590.4793441 351.10375192 579.88332395 359.28620775 566.6875 364.25 C565.80964844 364.60191406 564.93179688 364.95382812 564.02734375 365.31640625 C554.12275857 368.08505638 542.47159802 367.76405368 533.125 363.4375 C521.35002966 356.54449616 514.22761986 347.2106432 508.66015625 334.99609375 C507.80409304 333.07340337 507.80409304 333.07340337 505.6875 332.25 C505.45933594 332.94480469 505.23117187 333.63960938 504.99609375 334.35546875 C498.91762437 347.80068013 484.91112126 357.7695667 471.6875 363.25 C470.91792969 363.5696875 470.14835938 363.889375 469.35546875 364.21875 C457.81772799 368.14339883 441.79192587 368.28878667 430.4609375 363.7109375 C420.09245707 358.24923091 411.37777573 351.68217217 405.6875 341.25 C401.69107439 342.69193378 398.37352803 344.63143986 394.8125 346.9375 C387.73783758 351.41441875 380.34684034 354.88091377 372.6875 358.25 C371.57632813 358.7553125 370.46515625 359.260625 369.3203125 359.78125 C348.09143625 368.36410749 317.12034493 371.04881206 295.32421875 362.91796875 C294.10761983 362.371584 292.8955204 361.81509816 291.6875 361.25 C290.9857666 360.93885254 290.2840332 360.62770508 289.56103516 360.30712891 C277.02793458 354.64870168 267.14376338 347.20963273 258.6875 336.25 C255.04242135 337.79537897 252.65385452 340.02091785 249.8125 342.75 C239.82856662 351.93734295 229.37248867 359.25697254 216.6875 364.25 C215.77226562 364.62125 214.85703125 364.9925 213.9140625 365.375 C204.6614254 367.88418972 192.78398719 367.91205322 184.0625 363.8125 C171.92796467 356.5043948 162.21832439 346.17153617 158.6875 332.25 C155.32166045 335.51580585 152.32365644 338.8692887 149.4375 342.5625 C139.65938431 354.5242343 126.07491539 364.61878265 110.22900391 366.54956055 C107.64434373 366.68692535 105.0880651 366.71789714 102.5 366.6875 C101.58307373 366.67920166 100.66614746 366.67090332 99.72143555 366.66235352 C87.23995561 366.35477693 77.46740629 363.2278842 67.6875 355.25 C66.87410156 354.6621875 66.06070312 354.074375 65.22265625 353.46875 C62.0814816 350.71961718 59.9594224 347.72820606 57.6875 344.25 C57.25107178 343.58282959 56.81464355 342.91565918 56.36499023 342.22827148 C42.23226328 320.10874461 42.00677107 292.7300003 47.14404297 267.62011719 C50.53560972 252.82886382 56.64479221 238.12331247 64.6875 225.25 C63.70394531 225.28480469 62.72039062 225.31960938 61.70703125 225.35546875 C53.17996603 225.55752697 44.94777782 225.09202124 36.5 223.875 C35.61610596 223.74891357 34.73221191 223.62282715 33.8215332 223.49291992 C29.25962377 222.79333695 25.02779901 221.88382778 20.6875 220.25 C20.25775879 221.34852295 20.25775879 221.34852295 19.81933594 222.46923828 C8.61553425 249.99540334 -8.48283064 275.40228403 -27.3125 298.25 C-27.96992188 299.08015625 -28.62734375 299.9103125 -29.3046875 300.765625 C-53.64113924 331.25304806 -83.79425708 358.80224953 -123.3125 366.25 C-127.51188123 366.63337186 -131.66061588 366.67191337 -135.875 366.625 C-136.92107422 366.63660156 -137.96714844 366.64820313 -139.04492188 366.66015625 C-155.04609755 366.60056155 -167.42688731 360.66462102 -179.3125 350.25 C-180.32957031 349.39341797 -180.32957031 349.39341797 -181.3671875 348.51953125 C-191.93736569 338.90448965 -198.33972963 325.15680431 -203.57177734 312.09472656 C-204.25372241 310.39638216 -204.96348347 308.70927695 -205.67578125 307.0234375 C-209.49169377 297.69040069 -211.93363536 288.02637227 -214.3125 278.25 C-214.5511377 277.31857178 -214.78977539 276.38714355 -215.03564453 275.42749023 C-217.20528145 266.62717014 -218.48850392 257.7953952 -219.62011719 248.81518555 C-219.93326972 246.34585742 -220.26281404 243.8791089 -220.59375 241.41210938 C-223.47250653 219.35578639 -223.55237721 197.21403141 -223.5625 175 C-223.56294186 174.33124218 -223.56338371 173.66248436 -223.56383896 172.97346115 C-223.57765777 132.8242888 -221.45404457 92.95945453 -215.3125 53.25 C-215.1357373 52.10192871 -214.95897461 50.95385742 -214.77685547 49.77099609 C-209.90060015 19.1740431 -209.90060015 19.1740431 -200.53125 11.859375 C-191.38951862 5.74144708 -181.0052948 5.03536223 -170.3125 6.25 C-163.21032842 7.99439302 -157.7848441 10.75508528 -153.30078125 16.6015625 C-145.67578293 29.31993914 -152.68505428 53.88640036 -154.74365234 67.47070312 C-158.13532337 90.00420848 -160.55202625 112.53974448 -162.3125 135.25 C-162.40893799 136.39460693 -162.50537598 137.53921387 -162.60473633 138.71850586 C-163.53793338 150.77756979 -163.59864981 162.84762392 -163.625 174.9375 C-163.62892761 176.66720535 -163.62892761 176.66720535 -163.63293457 178.43185425 C-163.6368798 194.79680592 -163.07134867 211.01588997 -161.5625 227.3125 C-161.48399811 228.18691742 -161.40549622 229.06133484 -161.32461548 229.96224976 C-160.45586223 239.37807905 -159.18022481 248.650345 -157.3515625 257.9296875 C-157.19375305 258.73088516 -157.0359436 259.53208282 -156.87335205 260.3575592 C-154.19670186 273.25654669 -149.77643753 286.88756333 -141.63671875 297.41796875 C-140.3125 299.25 -140.3125 299.25 -140.3125 301.25 C-139.755625 301.518125 -139.19875 301.78625 -138.625 302.0625 C-136.3125 303.25 -136.3125 303.25 -133.9375 304.75 C-126.70284533 308.88408838 -120.33532271 308.62220457 -112.3125 307.25 C-94.31980894 302.26884103 -81.5477813 288.3076708 -70.3125 274.25 C-69.50167969 273.27933594 -68.69085938 272.30867188 -67.85546875 271.30859375 C-51.50739411 251.5239027 -34.51539907 225.85869721 -26.3125 201.25 C-26.8796875 200.97929687 -27.446875 200.70859375 -28.03125 200.4296875 C-40.98240151 193.73234545 -51.70470444 182.55396566 -59.3125 170.25 C-59.90675781 169.29222656 -60.50101563 168.33445313 -61.11328125 167.34765625 C-62.91561479 164.34891286 -64.63099789 161.31793293 -66.3125 158.25 C-66.76625 157.44691406 -67.22 156.64382812 -67.6875 155.81640625 C-72.53830246 146.34218269 -74.19710127 135.59869812 -76.3125 125.25 C-76.58513672 124.1221106 -76.58513672 124.1221106 -76.86328125 122.97143555 C-77.47773763 119.24896532 -77.49504782 115.55544819 -77.515625 111.79296875 C-77.52132507 110.97234451 -77.52702515 110.15172028 -77.53289795 109.30622864 C-77.54232741 107.56720253 -77.54887376 105.82815872 -77.55273438 104.08911133 C-77.56232801 101.48419869 -77.5933226 98.88011456 -77.625 96.27539062 C-77.69241562 85.55074804 -76.72754074 75.71168405 -74.3125 65.25 C-74.05863525 64.11079102 -73.80477051 62.97158203 -73.54321289 61.79785156 C-69.02967406 42.05503576 -57.7581842 23.10036418 -40.83203125 11.55859375 C-35.53278434 8.28045496 -30.06517235 5.62685265 -24.3125 3.25 C-23.44625 2.858125 -22.58 2.46625 -21.6875 2.0625 C-14.73699885 -0.31530303 -7.25513459 0.03436417 0 0 Z " fill="#FF01FF" transform="translate(266.3125,56.75)"/>
<path d="M0 0 C-0.71696408 6.43936436 -1.85071907 12.73987551 -3.109375 19.09375 C-3.4224057 20.68938782 -3.4224057 20.68938782 -3.74176025 22.31726074 C-4.18428732 24.56999865 -4.62814234 26.82247605 -5.07324219 29.07470703 C-5.73682513 32.43331766 -6.39613649 35.79274329 -7.0546875 39.15234375 C-8.35503784 45.77120465 -9.67194004 52.38664546 -11 59 C-11.33621872 60.67562515 -11.33621872 60.67562515 -11.67922974 62.38510132 C-12.33891138 65.6576932 -13.00596003 68.92868868 -13.67578125 72.19921875 C-13.87351135 73.18019531 -14.07124146 74.16117187 -14.27496338 75.171875 C-15.78762877 82.49057423 -17.78050778 89.2246507 -21 96 C-21.46277344 96.98097656 -21.92554688 97.96195312 -22.40234375 98.97265625 C-26.33353133 106.72032833 -31.11103541 113.02647144 -39 117 C-45.7427474 117.93700305 -52.19705071 117.67125363 -58 114 C-64.92377108 106.66894827 -65.32030802 98.72399369 -65.25 89.0625 C-65.25773437 88.00353516 -65.26546875 86.94457031 -65.2734375 85.85351562 C-65.25914561 80.12604127 -64.80940455 75.42135984 -63 70 C-62.72251062 68.17062558 -62.47170328 66.33697 -62.25 64.5 C-58.74496892 42.98820619 -45.58854521 22.6980695 -28.5 9.5 C-19.83752356 3.56180963 -10.55916811 -0.24556205 0 0 Z " fill="#FFFCFF" transform="translate(429,263)"/>
<path d="M0 0 C-0.61445824 5.40715708 -1.47698351 10.68501897 -2.63671875 16.00390625 C-2.79660278 16.75222717 -2.95648682 17.5005481 -3.12121582 18.27154541 C-3.46330282 19.87252743 -3.80675138 21.47321904 -4.15145874 23.07363892 C-6.71724983 34.98670993 -9.2128878 46.90460297 -11.45239258 58.88354492 C-19.89320717 103.99747027 -19.89320717 103.99747027 -36.125 115.5 C-41.30998442 118.13364288 -47.37870551 117.71714968 -53 117 C-57.46950121 114.88286785 -60.34786219 112.16764513 -63 108 C-64.93481709 101.75865454 -65.35185587 96.01197032 -65.3125 89.5 C-65.30758545 88.53312256 -65.3026709 87.56624512 -65.29760742 86.57006836 C-64.88119063 60.77571718 -55.01149334 35.36323112 -37.125 16.625 C-26.80032399 6.77979811 -14.46870635 0 0 0 Z " fill="#FFFCFF" transform="translate(779,263)"/>
<path d="M0 0 C5.03902539 2.63300426 8.03279036 6.71959519 10 12 C19.32459075 44.35260685 6.28664119 81.45953735 -4 112 C-17.71667772 100.85519935 -25.75410128 88.5069118 -29 71 C-29.16628906 70.34894287 -29.33257812 69.69788574 -29.50390625 69.02709961 C-31.10099321 62.68509581 -31.38505184 56.58765099 -31.375 50.0625 C-31.37338867 48.96945557 -31.37177734 47.87641113 -31.37011719 46.75024414 C-31.1548967 32.33363668 -29.06536723 17.17331324 -19 6.125 C-18.34 5.38507813 -17.68 4.64515625 -17 3.8828125 C-12.05338809 -0.77395887 -6.54096902 -1.05469656 0 0 Z " fill="#FFFCFF" transform="translate(262,105)"/>
<path d="M0 0 C1.25045214 2.50090427 0.88163454 3.29691917 0.25 5.98046875 C0.05760742 6.80256836 -0.13478516 7.62466797 -0.33300781 8.47167969 C-0.55311523 9.36790039 -0.77322266 10.26412109 -1 11.1875 C-1.2278418 12.12368164 -1.45568359 13.05986328 -1.69042969 14.02441406 C-4.37457594 24.81475369 -7.54512905 35.43316753 -11 46 C-11.33515625 47.02706055 -11.6703125 48.05412109 -12.015625 49.11230469 C-26.70577012 93.47051341 -26.70577012 93.47051341 -44 105 C-46.33984375 105.30078125 -46.33984375 105.30078125 -48.9375 105.3125 C-49.79214844 105.32925781 -50.64679687 105.34601563 -51.52734375 105.36328125 C-54.5375747 104.92101983 -55.8273826 104.11108357 -58 102 C-59.046875 100.01953125 -59.046875 100.01953125 -59.75 97.8125 C-59.99234375 97.09707031 -60.2346875 96.38164063 -60.484375 95.64453125 C-63.71750474 79.06249462 -54.90528621 62.27866082 -46.08911133 48.88476562 C-40.96313642 41.30607289 -35.3114971 34.62707196 -29 28 C-27.82564125 26.65249861 -26.65832811 25.29880616 -25.5 23.9375 C-18.03538341 15.39156045 -9.85432983 8.05453865 -1 1 C-0.67 0.67 -0.34 0.34 0 0 Z " fill="#FFFBFF" transform="translate(945,467)"/>
<path d="M0 0 C1.26823485 3.65393537 0.75715321 6.49070026 0.0625 10.25 C-0.13214844 11.32765625 -0.32679688 12.4053125 -0.52734375 13.515625 C-0.76130859 14.74539063 -0.76130859 14.74539063 -1 16 C-1.99 16 -2.98 16 -4 16 C-5 14 -5 14 -4.00390625 10.7421875 C-3.53110016 9.4502948 -3.05028031 8.16131362 -2.5625 6.875 C-2.31951172 6.21628906 -2.07652344 5.55757813 -1.82617188 4.87890625 C-1.22421679 3.25008662 -0.61297588 1.62470425 0 0 Z " fill="#FFCEFF" transform="translate(963,362)"/>
</svg>
